<svg version="1.1" id="Layer_1" xmlns="http://www.w3.org/2000/svg" xmlns:xlink="http://www.w3.org/1999/xlink" x="0px" y="0px"
	 width="100%" viewBox="0 0 341 400" enable-background="new 0 0 341 400" xml:space="preserve">
<path fill="#000000" opacity="1.000000" stroke="none" 
	d="
M184.000000,401.000000 
	C122.687187,401.000000 61.874371,401.000000 1.030779,401.000000 
	C1.030779,267.732178 1.030779,134.464325 1.030779,1.098239 
	C114.562759,1.098239 228.125641,1.098239 341.844238,1.098239 
	C341.844238,134.333191 341.844238,267.666565 341.844238,401.000000 
	C289.464386,401.000000 236.982193,401.000000 184.000000,401.000000 
M69.013489,368.995605 
	C69.013489,368.995605 69.038361,368.956848 69.406052,369.503632 
	C70.624908,369.945282 71.843765,370.386902 73.677277,371.154327 
	C76.856728,374.205597 80.269028,376.739227 85.658630,376.586273 
	C91.150818,378.666473 96.577011,380.951294 102.159309,382.752197 
	C105.656509,383.880402 109.388519,384.280731 113.726105,385.264252 
	C118.762039,386.529572 123.797966,387.794922 129.199005,389.751404 
	C129.722321,390.139801 130.198929,390.767578 130.776077,390.880188 
	C137.922745,392.274689 145.048752,393.853577 152.255096,394.833649 
	C156.444244,395.403351 160.768295,394.981232 165.960617,394.975708 
	C170.668762,394.910583 175.376923,394.845459 180.774078,395.214508 
	C187.667664,395.073975 194.562775,394.974731 201.452072,394.718964 
	C202.039078,394.697113 202.587357,393.632080 203.985931,393.006744 
	C206.265610,393.288452 208.603729,394.043304 210.814850,393.770081 
	C220.474777,392.576630 230.185699,391.521973 239.715286,389.606750 
	C257.412964,386.049896 274.213898,379.772095 289.998322,370.980957 
	C297.083649,367.034821 303.088257,361.984619 304.591553,352.766022 
	C307.633179,349.699158 311.070862,346.931610 313.651733,343.516510 
	C329.591827,322.424194 330.649078,299.718262 320.119324,276.098907 
	C318.008026,271.363037 318.425262,267.771271 320.999115,263.238098 
	C329.242828,248.718781 329.013031,234.016937 320.889130,219.244186 
	C315.588318,209.605072 307.578674,202.909058 298.924683,196.042938 
	C297.636810,195.022949 296.424042,193.885117 295.046051,193.006470 
	C291.758362,190.910172 288.392700,188.936172 285.003479,186.981384 
	C285.003479,186.981384 285.082153,186.942154 284.941010,186.401550 
	C284.598938,185.971069 284.256866,185.540588 283.935913,184.349960 
	C284.263855,183.422012 284.439453,182.400711 284.942413,181.580032 
	C293.871552,167.010727 292.458710,152.756607 284.320251,138.307281 
	C281.340790,133.017441 277.065125,129.029739 277.423737,121.038589 
	C277.997314,108.255699 275.732880,94.943481 272.371552,82.474098 
	C266.360870,60.176365 252.503510,42.602489 234.649521,28.223093 
	C226.034134,21.284370 216.590607,15.589851 205.381699,14.207619 
	C197.847824,13.278574 190.156708,13.678982 182.595703,12.902526 
	C171.538727,11.767056 161.436142,15.193851 151.157257,18.293467 
	C148.403061,19.123997 144.973923,19.367161 142.298523,18.504057 
	C133.659378,15.717010 125.262390,14.863523 116.474281,17.955727 
	C98.019966,24.449095 84.027023,43.625469 83.392036,60.502014 
	C83.263443,62.310093 82.838120,64.156830 83.067604,65.918266 
	C83.556000,69.667007 83.011429,72.690598 79.187065,74.470879 
	C78.189903,74.935066 77.441193,75.987564 76.654305,76.839958 
	C71.538063,82.382042 71.211998,93.240494 76.097015,98.672859 
	C77.196785,100.283447 78.296547,101.894035 79.644806,103.868523 
	C77.095047,106.269699 74.299522,108.528099 71.953636,111.183693 
	C65.641762,118.328888 64.055321,126.870377 65.014488,136.119034 
	C65.492409,140.727386 65.716599,145.362030 65.649551,150.724655 
	C65.649551,157.266251 65.649551,163.807861 65.649551,170.345184 
	C47.820076,170.497208 29.590635,180.334412 22.299751,201.260956 
	C15.672540,220.282608 20.696121,237.341248 35.462669,250.801865 
	C30.118744,254.465363 24.658117,257.223511 20.523758,261.320160 
	C16.385853,265.420349 12.672200,270.480011 10.433783,275.815948 
	C8.208696,281.120087 6.570551,287.482117 7.287662,293.043335 
	C8.883509,305.419189 16.264179,315.086639 25.119631,325.010803 
	C26.614193,316.751617 30.491524,312.227753 37.008350,310.007446 
	C37.008350,310.007446 37.041729,310.042969 37.046608,310.730896 
	C36.164684,312.643463 34.707550,314.499207 34.511818,316.479584 
	C33.985641,321.803345 32.372429,327.797424 34.123821,332.412262 
	C38.210999,343.181824 45.667004,351.990601 55.284302,359.616730 
	C56.520832,360.412842 57.757366,361.208954 59.271580,362.623230 
	C62.200718,364.387482 65.129860,366.151764 68.035652,367.942566 
	C68.035652,367.942566 68.065399,367.961670 68.257545,368.403900 
	C68.449074,368.679504 68.705917,368.864380 69.013489,368.995605 
z"/>
<path fill="#2C121A" opacity="1.000000" stroke="none" 
	d="
M298.870605,196.756927 
	C307.578674,202.909058 315.588318,209.605072 320.889130,219.244186 
	C329.013031,234.016937 329.242828,248.718781 320.999115,263.238098 
	C318.425262,267.771271 318.008026,271.363037 320.119324,276.098907 
	C330.649078,299.718262 329.591827,322.424194 313.651733,343.516510 
	C311.070862,346.931610 307.633179,349.699158 303.949677,352.809204 
	C299.639496,346.058502 296.405640,338.982574 292.215271,332.527618 
	C282.574432,317.676697 268.482422,309.870728 250.696014,307.787750 
	C246.282501,307.012848 242.147339,306.490784 237.656189,305.899475 
	C215.104340,297.164185 200.205719,282.165131 197.364304,257.723999 
	C196.068283,246.575867 196.450989,235.232559 196.205505,223.621002 
	C196.250351,222.518921 196.161987,221.773605 196.202118,220.642746 
	C196.428986,217.594711 196.810806,214.905411 196.561829,212.275818 
	C196.148331,207.908691 198.263489,205.047211 200.782318,201.694855 
	C207.335953,192.972488 213.996613,184.130081 218.953857,174.482254 
	C222.036026,168.483704 225.089737,164.808273 231.726562,162.741501 
	C246.450958,158.156189 253.594086,141.658966 247.805145,127.667747 
	C244.864090,120.559547 238.386734,117.220123 231.252014,120.059738 
	C226.561081,121.926735 222.380417,125.091499 218.019257,127.753761 
	C217.396713,128.133789 216.715378,128.912842 216.622864,129.584564 
	C216.068283,133.610703 217.344681,136.972366 219.589157,140.477936 
	C223.771896,147.010742 219.400101,154.284042 211.132278,154.755447 
	C214.498428,150.120453 213.947845,145.783707 210.626953,141.536377 
	C209.835938,140.524673 209.506927,139.151718 208.924438,137.651581 
	C207.591980,135.774551 206.300507,134.190887 205.424927,133.117218 
	C204.900772,134.003036 204.013855,135.501953 202.981140,136.604614 
	C202.549179,132.102051 201.961533,127.988823 202.055252,123.891190 
	C202.165436,119.074623 197.537750,111.706398 193.586136,112.077820 
	C181.815353,113.184174 170.376022,111.423431 158.877563,108.617973 
	C157.526703,107.849983 156.265244,107.419052 154.774994,106.739899 
	C151.980286,105.758171 149.414368,105.024651 146.571747,104.222908 
	C145.835434,103.845779 145.375824,103.536873 144.884430,102.862488 
	C142.290115,99.859253 139.965668,96.762344 135.473297,97.664902 
	C135.386368,97.650864 135.293930,97.500969 135.476135,97.191307 
	C135.283234,95.445511 135.381790,93.434975 134.453598,92.669540 
	C129.628891,88.690887 124.542503,85.029549 120.116753,81.687737 
	C119.007721,82.503746 117.593971,83.543961 115.904190,84.373917 
	C114.342384,83.131538 113.056595,82.099426 111.330208,80.713654 
	C110.865318,83.658775 110.450844,86.284523 110.030762,89.274384 
	C110.323677,90.759460 110.622208,91.880424 110.951965,93.301270 
	C111.015923,94.001701 111.048660,94.402260 110.920227,95.111992 
	C109.546455,95.945198 108.333847,96.469231 106.891068,96.694702 
	C105.525932,92.627914 104.390968,88.859680 103.291527,85.209412 
	C98.344780,91.686455 99.539864,98.829514 106.081253,101.084442 
	C106.406700,103.267326 106.696205,105.059868 106.548927,106.923294 
	C103.016502,106.784439 99.920868,106.574692 96.253548,106.326202 
	C95.708893,112.814728 95.159004,119.365669 94.295418,125.946167 
	C93.320198,126.649460 92.658669,127.323189 91.661316,128.049866 
	C90.211792,129.396683 89.098099,130.690536 87.689880,132.003586 
	C86.929901,132.348007 86.464439,132.673248 85.672356,133.055847 
	C84.290390,133.993622 83.235046,134.874023 82.179695,135.754425 
	C82.606628,136.117493 83.033562,136.480545 83.460495,136.843613 
	C84.307610,135.563019 85.154716,134.282425 86.297340,132.985107 
	C87.064674,132.649734 87.536499,132.331070 88.327011,131.959991 
	C89.742157,131.242783 90.838623,130.577972 92.256447,129.939850 
	C93.217560,129.991379 93.857315,130.016235 94.569923,130.367859 
	C94.533363,131.122681 94.423943,131.550690 94.050049,132.134384 
	C91.112587,137.367538 92.105713,142.236328 94.695114,147.342133 
	C94.737022,148.105423 94.707809,148.544891 94.334702,149.140198 
	C92.916542,153.367325 91.219986,157.502808 95.420212,161.276413 
	C95.767097,161.662170 95.897820,161.823578 96.021179,162.343048 
	C96.005424,163.415176 95.997040,164.129242 96.001854,165.283920 
	C98.282341,176.077179 99.687393,186.715027 102.997948,196.722534 
	C109.711914,217.018265 123.640167,232.937286 148.158020,230.060745 
	C149.374191,230.598709 150.420670,230.860794 151.507828,231.580017 
	C151.447174,239.367859 151.345840,246.698578 151.155014,254.437317 
	C147.865891,277.488037 136.649796,294.154358 114.646454,303.061707 
	C112.138359,303.051147 110.069969,303.085388 107.621719,303.087494 
	C106.480057,303.064636 105.718246,303.073914 104.664337,302.819153 
	C93.872833,300.943146 80.788712,307.563171 75.573433,317.024750 
	C74.468506,318.346466 73.696823,319.600952 72.608261,320.963013 
	C70.903923,323.047241 69.516479,325.023895 68.011658,327.325195 
	C66.888977,329.741150 65.883659,331.832458 64.563278,334.029907 
	C63.855747,335.104156 63.463295,336.072205 63.036179,337.355408 
	C62.966343,338.091858 62.931171,338.513153 62.597313,339.018738 
	C61.848446,340.398987 61.398273,341.694977 60.931778,343.307373 
	C60.883789,344.045044 60.852123,344.466309 60.503998,345.001648 
	C57.210850,349.324280 54.279484,353.550018 54.882656,359.115143 
	C45.667004,351.990601 38.210999,343.181824 34.123821,332.412262 
	C32.372429,327.797424 33.985641,321.803345 34.511818,316.479584 
	C34.707550,314.499207 36.164684,312.643463 37.258278,310.377716 
	C37.678005,309.856201 37.886063,309.687897 38.094120,309.519562 
	C37.722229,309.669403 37.350338,309.819214 36.978451,309.969055 
	C30.491524,312.227753 26.614193,316.751617 25.119631,325.010803 
	C16.264179,315.086639 8.883509,305.419189 7.287662,293.043335 
	C6.570551,287.482117 8.208696,281.120087 10.433783,275.815948 
	C12.672200,270.480011 16.385853,265.420349 20.523758,261.320160 
	C24.658117,257.223511 30.118744,254.465363 35.462669,250.801865 
	C20.696121,237.341248 15.672540,220.282608 22.299751,201.260956 
	C29.590635,180.334412 47.820076,170.497208 65.649551,170.345184 
	C65.649551,163.807861 65.649551,157.266251 66.190979,150.302734 
	C69.919861,147.701828 73.018768,145.481247 71.135490,140.556122 
	C72.250664,138.961487 73.401299,137.754959 74.125854,136.331543 
	C75.857307,132.930084 77.839272,129.556107 78.881187,125.929993 
	C80.081718,121.751915 80.380386,117.314697 81.421707,112.982445 
	C83.583839,112.020035 85.394981,111.065201 87.369217,110.024376 
	C86.436256,108.380531 85.735207,107.145287 84.912300,105.717865 
	C84.599060,105.281708 84.363594,105.092621 84.185188,104.706863 
	C84.514282,103.963524 84.742241,103.471733 84.858124,102.783180 
	C84.558617,102.339439 84.320747,102.158951 84.018173,102.027023 
	C84.003922,102.009117 83.978386,101.970947 83.977783,101.668335 
	C80.883560,97.524765 79.165024,93.176414 80.093735,88.251091 
	C80.761696,84.708679 82.027351,81.278984 83.037827,77.551018 
	C83.272400,76.873688 83.495544,76.444336 84.036942,76.012344 
	C84.858322,75.693306 85.361458,75.376915 86.104546,74.830307 
	C85.544144,69.697388 84.743790,64.794685 83.943443,59.891987 
	C84.027023,43.625469 98.019966,24.449095 116.474281,17.955727 
	C125.262390,14.863523 133.659378,15.717010 142.298523,18.504057 
	C144.973923,19.367161 148.403061,19.123997 151.157257,18.293467 
	C161.436142,15.193851 171.538727,11.767056 182.595703,12.902526 
	C190.156708,13.678982 197.847824,13.278574 205.381699,14.207619 
	C216.590607,15.589851 226.034134,21.284370 234.649521,28.223093 
	C252.503510,42.602489 266.360870,60.176365 272.371552,82.474098 
	C275.732880,94.943481 277.997314,108.255699 277.423737,121.038589 
	C277.065125,129.029739 281.340790,133.017441 284.320251,138.307281 
	C292.458710,152.756607 293.871552,167.010727 284.942413,181.580032 
	C284.439453,182.400711 284.263855,183.422012 283.539307,184.642090 
	C282.872711,185.247375 282.602722,185.560547 282.332733,185.873718 
	C283.249207,186.229874 284.165680,186.586014 285.082153,186.942154 
	C285.082153,186.942154 285.003479,186.981384 284.661438,187.162903 
	C289.169800,190.481918 294.020203,193.619431 298.870605,196.756927 
M33.220375,232.793549 
	C32.905296,230.341782 32.508278,227.897293 32.289474,225.436951 
	C31.393343,215.360474 32.192448,205.529556 37.642437,196.690598 
	C40.482792,192.084030 43.842251,187.797516 46.967232,183.366440 
	C34.655037,191.009781 28.126783,202.352280 27.165194,216.426727 
	C26.407373,227.518677 28.696068,238.157135 36.829113,247.949417 
	C38.926048,241.511887 34.466145,237.959717 33.220375,232.793549 
M284.224670,165.704773 
	C284.147156,162.300415 284.672119,158.746735 283.872650,155.521317 
	C281.925629,147.666336 280.221588,139.564194 273.192047,133.668304 
	C280.751770,149.850967 284.889099,166.157883 276.215454,183.296783 
	C281.139893,178.554916 282.874268,172.667831 284.224670,165.704773 
M199.877197,113.300125 
	C200.964691,114.492867 202.052200,115.685616 203.224838,116.971748 
	C204.930511,114.736153 206.478546,112.707153 208.026596,110.678146 
	C207.666611,110.167625 207.306625,109.657104 206.946640,109.146584 
	C204.403503,110.361855 201.860367,111.577126 199.877197,113.300125 
z"/>
<path fill="#7F0B22" opacity="1.000000" stroke="none" 
	d="
M72.925125,320.855438 
	C73.696823,319.600952 74.468506,318.346466 75.928055,316.992828 
	C83.243820,312.930878 89.761459,308.762695 96.558022,305.114136 
	C99.013329,303.796051 102.137489,303.723907 104.956444,303.083221 
	C105.718246,303.073914 106.480057,303.064636 107.719543,303.412170 
	C110.315445,304.513824 112.433670,305.258698 114.704750,306.319763 
	C114.858498,307.103180 114.859398,307.570374 114.637367,308.332794 
	C114.625168,312.363098 114.835907,316.098175 114.992203,318.868225 
	C117.933968,322.675446 121.118240,325.869537 123.136154,329.681122 
	C124.979874,333.163696 127.367920,334.733398 131.105469,335.354706 
	C134.124908,337.620148 136.950714,339.725433 140.019333,341.380524 
	C141.492462,342.175110 143.412613,342.264771 145.152145,342.407257 
	C146.942245,342.553894 148.760605,342.413940 150.563644,342.333588 
	C155.939011,342.094086 161.564362,342.748688 166.635574,341.372192 
	C177.536835,338.413330 188.206177,334.549927 198.837219,330.689819 
	C200.847763,329.959778 202.241379,327.530640 203.959229,325.924011 
	C203.998795,325.962494 203.898712,325.916016 204.286102,325.943604 
	C205.448425,325.974792 206.223343,325.978424 207.348434,326.034576 
	C209.408569,326.614349 211.118530,327.141602 212.673203,327.620941 
	C213.423828,326.314941 213.780624,324.839569 214.709244,324.216522 
	C221.002396,319.994415 227.291672,315.738586 233.833282,311.924225 
	C238.505936,309.199646 243.508179,306.901489 249.262161,308.853699 
	C249.691513,308.999359 250.397171,308.330688 250.974365,308.040588 
	C268.482422,309.870728 282.574432,317.676697 292.215271,332.527618 
	C296.405640,338.982574 299.639496,346.058502 303.652527,352.968140 
	C303.088257,361.984619 297.083649,367.034821 289.998322,370.980957 
	C274.213898,379.772095 257.412964,386.049896 239.715286,389.606750 
	C230.185699,391.521973 220.474777,392.576630 210.814850,393.770081 
	C208.603729,394.043304 206.265610,393.288452 203.089127,393.008301 
	C194.823242,393.599976 187.454147,394.190155 180.085068,394.780334 
	C175.376923,394.845459 170.668762,394.910583 165.367859,394.616699 
	C161.127899,393.656891 157.490555,392.986359 153.831482,392.469391 
	C145.504608,391.292999 137.167084,390.191956 128.833893,389.060272 
	C123.797966,387.794922 118.762039,386.529572 113.314278,384.802856 
	C111.655273,383.432343 110.519463,382.258392 109.134842,381.676147 
	C107.057053,380.802429 104.802795,380.350342 102.627052,379.707184 
	C98.368538,378.448303 94.112419,377.181274 89.966019,375.537231 
	C91.392891,368.869934 92.709053,362.583038 94.025223,356.296143 
	C93.712166,356.228943 93.399109,356.161774 93.086052,356.094574 
	C91.378113,362.082031 89.670174,368.069519 87.598122,374.050018 
	C86.505684,374.043335 85.777367,374.043610 84.692780,373.977844 
	C82.475761,372.899902 80.617470,371.883423 78.753769,370.877014 
	C74.503304,368.581726 70.250183,366.291321 65.835663,363.703918 
	C57.952202,359.042999 56.714455,352.932709 60.811920,345.377563 
	C60.881016,345.250183 60.820488,345.052460 60.820457,344.887573 
	C60.852123,344.466309 60.883789,344.045044 61.197025,343.107391 
	C61.951057,341.372131 62.423527,340.153290 62.896000,338.934418 
	C62.931171,338.513153 62.966343,338.091858 63.361752,337.265564 
	C64.107437,335.881622 64.492889,334.902679 64.878342,333.923737 
	C65.883659,331.832458 66.888977,329.741150 68.345032,327.268097 
	C70.172218,324.876007 71.548668,322.865723 72.925125,320.855438 
M105.877838,375.696838 
	C105.102112,376.008545 104.326385,376.320251 103.550682,376.631958 
	C103.963509,377.042969 104.376343,377.453979 104.789139,377.865021 
	C105.296135,377.292084 105.803123,376.719147 105.877838,375.696838 
z"/>
<path fill="#2A1F23" opacity="1.000000" stroke="none" 
	d="
M70.977226,140.845642 
	C73.018768,145.481247 69.919861,147.701828 66.393997,149.932800 
	C65.716599,145.362030 65.492409,140.727386 65.014488,136.119034 
	C64.055321,126.870377 65.641762,118.328888 71.953636,111.183693 
	C74.299522,108.528099 77.095047,106.269699 79.644806,103.868523 
	C78.296547,101.894035 77.196785,100.283447 76.057800,97.993958 
	C76.393372,96.526230 76.768173,95.737404 77.406158,95.158424 
	C79.450066,97.560143 81.230774,99.752014 82.971558,102.273262 
	C83.274727,103.746635 83.617836,104.890648 83.943436,106.343918 
	C83.892502,106.856979 83.859085,107.060768 83.468643,107.266350 
	C82.779732,107.275528 82.421150,107.202240 82.119789,107.301933 
	C70.682671,111.084862 64.427361,129.934006 68.655899,140.089264 
	C68.859711,140.578720 70.177956,140.604126 70.977226,140.845642 
z"/>
<path fill="#291B20" opacity="1.000000" stroke="none" 
	d="
M77.142967,94.948586 
	C76.768173,95.737404 76.393372,96.526230 76.008072,97.659897 
	C71.211998,93.240494 71.538063,82.382042 76.654305,76.839958 
	C77.441193,75.987564 78.189903,74.935066 79.187065,74.470879 
	C83.011429,72.690598 83.556000,69.667007 83.067604,65.918266 
	C82.838120,64.156830 83.263443,62.310093 83.667740,60.196999 
	C84.743790,64.794685 85.544144,69.697388 85.806732,74.855148 
	C84.752197,75.411797 84.235435,75.713387 83.718689,76.014984 
	C83.495544,76.444336 83.272400,76.873688 82.690475,77.648155 
	C76.196243,82.296745 76.348068,88.524269 77.142967,94.948586 
z"/>
<path fill="#761B2E" opacity="1.000000" stroke="none" 
	d="
M85.049042,374.043884 
	C85.777367,374.043610 86.505684,374.043335 87.666862,374.337708 
	C88.684921,375.060760 89.270119,375.489197 89.855316,375.917603 
	C94.112419,377.181274 98.368538,378.448303 102.627052,379.707184 
	C104.802795,380.350342 107.057053,380.802429 109.134842,381.676147 
	C110.519463,382.258392 111.655273,383.432343 112.958817,384.674530 
	C109.388519,384.280731 105.656509,383.880402 102.159309,382.752197 
	C96.577011,380.951294 91.150818,378.666473 85.333786,376.053467 
	C85.022308,375.028412 85.035675,374.536163 85.049042,374.043884 
z"/>
<path fill="#6E192C" opacity="1.000000" stroke="none" 
	d="
M129.016449,389.405823 
	C137.167084,390.191956 145.504608,391.292999 153.831482,392.469391 
	C157.490555,392.986359 161.127899,393.656891 164.903381,394.631561 
	C160.768295,394.981232 156.444244,395.403351 152.255096,394.833649 
	C145.048752,393.853577 137.922745,392.274689 130.776077,390.880188 
	C130.198929,390.767578 129.722321,390.139801 129.016449,389.405823 
z"/>
<path fill="#541B27" opacity="1.000000" stroke="none" 
	d="
M84.692780,373.977844 
	C85.035675,374.536163 85.022308,375.028412 85.021988,375.892151 
	C80.269028,376.739227 76.856728,374.205597 73.174789,370.721771 
	C71.460991,369.845093 70.249672,369.400970 69.038361,368.956848 
	C69.038361,368.956848 69.013489,368.995605 68.903412,368.772888 
	C68.595665,368.298431 68.353012,368.102234 68.065399,367.961670 
	C68.065399,367.961670 68.035652,367.942566 67.974884,367.619446 
	C67.237732,366.239288 66.561348,365.182251 65.913391,364.093750 
	C65.941826,364.062317 65.998131,363.998962 65.998131,363.998962 
	C70.250183,366.291321 74.503304,368.581726 78.753769,370.877014 
	C80.617470,371.883423 82.475761,372.899902 84.692780,373.977844 
z"/>
<path fill="#541B27" opacity="1.000000" stroke="none" 
	d="
M60.503998,345.001648 
	C60.820488,345.052460 60.881016,345.250183 60.811920,345.377563 
	C56.714455,352.932709 57.952202,359.042999 65.835663,363.703918 
	C65.998131,363.998962 65.941826,364.062317 65.553986,364.046448 
	C63.108738,363.355377 61.051323,362.680206 58.993904,362.005066 
	C57.757366,361.208954 56.520832,360.412842 55.083481,359.365936 
	C54.279484,353.550018 57.210850,349.324280 60.503998,345.001648 
z"/>
<path fill="#6E1C2C" opacity="1.000000" stroke="none" 
	d="
M180.429565,394.997437 
	C187.454147,394.190155 194.823242,393.599976 202.672974,393.030762 
	C202.587357,393.632080 202.039078,394.697113 201.452072,394.718964 
	C194.562775,394.974731 187.667664,395.073975 180.429565,394.997437 
z"/>
<path fill="#F7F1F4" opacity="1.000000" stroke="none" 
	d="
M298.897644,196.399933 
	C294.020203,193.619431 289.169800,190.481918 284.688965,187.128601 
	C288.392700,188.936172 291.758362,190.910172 295.046051,193.006470 
	C296.424042,193.885117 297.636810,195.022949 298.897644,196.399933 
z"/>
<path fill="#2C121A" opacity="1.000000" stroke="none" 
	d="
M59.132744,362.314148 
	C61.051323,362.680206 63.108738,363.355377 65.525558,364.077881 
	C66.561348,365.182251 67.237732,366.239288 67.986557,367.606171 
	C65.129860,366.151764 62.200718,364.387482 59.132744,362.314148 
z"/>
<path fill="#2C121A" opacity="1.000000" stroke="none" 
	d="
M69.222206,369.230225 
	C70.249672,369.400970 71.460991,369.845093 72.867470,370.558868 
	C71.843765,370.386902 70.624908,369.945282 69.222206,369.230225 
z"/>
<path fill="#F7F1F4" opacity="1.000000" stroke="none" 
	d="
M285.011597,186.671844 
	C284.165680,186.586014 283.249207,186.229874 282.332733,185.873718 
	C282.602722,185.560547 282.872711,185.247375 283.528778,185.022156 
	C284.256866,185.540588 284.598938,185.971069 285.011597,186.671844 
z"/>
<path fill="#2C121A" opacity="1.000000" stroke="none" 
	d="
M68.161469,368.182800 
	C68.353012,368.102234 68.595665,368.298431 68.910706,368.754364 
	C68.705917,368.864380 68.449074,368.679504 68.161469,368.182800 
z"/>
<path fill="#F5BA9B" opacity="1.000000" stroke="none" 
	d="
M147.988358,229.784851 
	C123.640167,232.937286 109.711914,217.018265 102.997948,196.722534 
	C99.687393,186.715027 98.282341,176.077179 96.421875,165.280228 
	C99.265198,164.526276 101.729424,164.357224 104.133568,163.883377 
	C116.388176,161.468018 127.362228,149.911774 129.142395,137.859085 
	C129.333435,136.565552 130.156067,134.880386 131.203156,134.281250 
	C136.020279,131.524979 142.130356,134.509827 143.099228,139.863312 
	C145.687485,154.164490 157.114227,165.177353 171.228592,166.973816 
	C185.177597,168.749222 198.946213,161.066559 204.926880,148.049942 
	C206.439392,144.758041 207.627975,141.317291 208.965408,137.944931 
	C209.506927,139.151718 209.835938,140.524673 210.626953,141.536377 
	C213.947845,145.783707 214.498428,150.120453 211.132278,154.755447 
	C219.400101,154.284042 223.771896,147.010742 219.589157,140.477936 
	C217.344681,136.972366 216.068283,133.610703 216.622864,129.584564 
	C216.715378,128.912842 217.396713,128.133789 218.019257,127.753761 
	C222.380417,125.091499 226.561081,121.926735 231.252014,120.059738 
	C238.386734,117.220123 244.864090,120.559547 247.805145,127.667747 
	C253.594086,141.658966 246.450958,158.156189 231.726562,162.741501 
	C225.089737,164.808273 222.036026,168.483704 218.953857,174.482254 
	C213.996613,184.130081 207.335953,192.972488 200.782318,201.694855 
	C198.263489,205.047211 196.148331,207.908691 196.561829,212.275818 
	C196.810806,214.905411 196.428986,217.594711 195.932663,220.329300 
	C195.362289,218.278076 195.273926,216.143417 194.989594,214.035172 
	C194.780106,212.482010 194.314590,210.963364 193.963165,209.429352 
	C192.326797,209.942871 190.516495,210.163895 189.082031,211.016968 
	C179.159576,216.917831 169.945160,224.061111 158.522781,227.974167 
	C154.734619,228.531174 151.361496,229.158020 147.988358,229.784851 
M130.043121,195.760620 
	C142.706848,199.785873 151.217621,191.663971 160.594116,186.056793 
	C146.065353,180.222519 131.713684,178.329208 115.510818,184.762039 
	C120.794113,188.855209 125.056580,192.157486 130.043121,195.760620 
z"/>
<path fill="#F7BB9A" opacity="1.000000" stroke="none" 
	d="
M114.860298,308.037567 
	C114.859398,307.570374 114.858498,307.103180 114.686760,305.943970 
	C114.706001,304.536804 114.896080,303.821625 115.086166,303.106476 
	C136.649796,294.154358 147.865891,277.488037 151.502930,254.619644 
	C163.591095,256.646118 172.239441,250.426743 180.518799,243.828568 
	C185.357101,239.972717 189.515060,235.263184 193.986023,231.379379 
	C194.090347,241.352097 192.987839,250.929443 195.003830,260.387512 
	C196.352188,266.713501 196.021500,273.576752 201.032013,278.758728 
	C201.666046,279.414459 201.563766,280.880646 201.614365,281.980011 
	C201.700836,283.858246 201.638214,285.743317 201.638214,287.972748 
	C206.394257,286.477203 209.008896,287.594421 209.188568,292.747711 
	C209.227036,293.850616 210.988388,295.040924 212.158188,295.922882 
	C213.985535,297.300629 215.985428,298.449432 217.912216,299.695251 
	C216.555222,301.287750 215.183426,302.868164 213.861572,304.489288 
	C213.711243,304.673676 213.841232,305.086639 213.841232,305.459137 
	C218.564255,304.958740 223.339554,304.452789 228.114868,303.946838 
	C228.273560,304.354156 228.432266,304.761475 228.590958,305.168793 
	C223.248550,306.810822 225.376572,310.953705 224.947845,314.481171 
	C224.340271,314.821686 223.884125,314.972412 223.166733,315.171631 
	C222.614014,315.413574 222.322556,315.607025 221.797699,315.878967 
	C221.564285,315.957489 221.078873,316.040894 220.746460,315.857178 
	C217.301025,315.482910 214.058258,314.748993 211.156235,315.441986 
	C210.315430,315.642761 210.451599,319.934753 209.956177,322.567657 
	C208.770676,323.303833 207.768906,323.823517 206.450424,324.452698 
	C205.388702,325.013489 204.643707,325.464752 203.898712,325.916016 
	C203.898712,325.916016 203.998795,325.962494 203.590652,325.962402 
	C201.356537,326.744324 199.530014,327.524994 197.704697,328.308533 
	C185.318558,333.625366 172.671753,338.063232 159.212708,339.787140 
	C149.680267,341.008118 140.812088,338.561005 132.043762,334.614746 
	C122.979073,327.663574 118.150604,318.350830 114.860298,308.037567 
z"/>
<path fill="#CC9A80" opacity="1.000000" stroke="none" 
	d="
M158.966965,108.955025 
	C170.376022,111.423431 181.815353,113.184174 193.586136,112.077820 
	C197.537750,111.706398 202.165436,119.074623 202.055252,123.891190 
	C201.961533,127.988823 202.549179,132.102051 203.024536,136.998581 
	C203.381775,140.030121 204.260757,142.507202 203.607773,144.476242 
	C197.181656,163.853333 172.219955,170.785278 156.424500,157.817810 
	C142.408737,146.311371 139.800751,122.878098 158.966965,108.955025 
M176.290878,123.087906 
	C170.279114,126.266273 165.488358,130.775787 160.974426,135.587097 
	C161.460754,136.116348 161.947083,136.645615 162.433411,137.174866 
	C167.292175,132.452927 172.150940,127.730995 177.666763,122.908623 
	C178.715439,122.026360 179.764099,121.144096 180.812759,120.261833 
	C180.383087,119.897301 179.953415,119.532761 179.523727,119.168228 
	C178.679382,120.442215 177.835022,121.716202 176.290878,123.087906 
z"/>
<path fill="#CB9A81" opacity="1.000000" stroke="none" 
	d="
M94.609108,125.916611 
	C95.159004,119.365669 95.708893,112.814728 96.253548,106.326202 
	C99.920868,106.574692 103.016502,106.784439 106.927032,106.982552 
	C114.029350,104.879059 117.318047,109.362083 120.299202,113.302940 
	C127.693413,123.077538 129.154144,133.925644 123.684166,145.015121 
	C118.124123,156.287155 108.500191,161.627151 96.028549,161.984970 
	C95.897820,161.823578 95.767097,161.662170 95.494873,160.870987 
	C95.128448,156.488907 94.903519,152.736633 94.678589,148.984344 
	C94.707809,148.544891 94.737022,148.105423 94.782608,146.882263 
	C94.637489,141.391937 94.476006,136.685333 94.314529,131.978714 
	C94.423943,131.550690 94.533363,131.122681 94.664673,130.044830 
	C94.679634,128.948059 94.672707,128.501129 94.760674,127.700844 
	C94.773415,126.870537 94.691261,126.393578 94.609108,125.916611 
z"/>
<path fill="#F4A781" opacity="1.000000" stroke="none" 
	d="
M193.979111,230.937714 
	C189.515060,235.263184 185.357101,239.972717 180.518799,243.828568 
	C172.239441,250.426743 163.591095,256.646118 151.592438,254.211639 
	C151.345840,246.698578 151.447174,239.367859 151.796066,231.303864 
	C154.341690,229.728394 156.639755,228.886200 158.937805,228.044006 
	C169.945160,224.061111 179.159576,216.917831 189.082031,211.016968 
	C190.516495,210.163895 192.326797,209.942871 193.963165,209.429352 
	C194.314590,210.963364 194.780106,212.482010 194.989594,214.035172 
	C195.273926,216.143417 195.362289,218.278076 195.804169,220.714859 
	C196.161987,221.773605 196.250351,222.518921 195.952301,223.888947 
	C195.036942,226.655014 194.508026,228.796371 193.979111,230.937714 
z"/>
<path fill="#421B13" opacity="1.000000" stroke="none" 
	d="
M96.021179,162.343048 
	C108.500191,161.627151 118.124123,156.287155 123.684166,145.015121 
	C129.154144,133.925644 127.693413,123.077538 120.299202,113.302940 
	C117.318047,109.362083 114.029350,104.879059 107.363823,106.911652 
	C106.696205,105.059868 106.406700,103.267326 106.472893,101.150620 
	C107.874924,100.890060 108.921249,100.953682 109.980637,101.259254 
	C109.993690,101.501205 109.978188,101.985565 109.719322,102.135086 
	C109.154030,102.938080 108.847603,103.591553 108.541176,104.245026 
	C108.833008,104.343887 109.124847,104.442741 109.416679,104.541595 
	C109.619118,103.702316 109.821556,102.863037 110.354660,102.006630 
	C111.228149,101.598808 111.770981,101.208115 112.313812,100.817413 
	C111.487923,100.558846 110.662033,100.300278 109.545273,99.940689 
	C108.543335,98.890862 107.832283,97.942055 107.121231,96.993256 
	C108.333847,96.469231 109.546455,95.945198 111.191498,95.168381 
	C111.808487,94.922142 111.993027,94.928688 112.260269,95.278923 
	C114.213600,98.055672 116.084251,100.488739 117.614601,102.955482 
	C116.541985,103.458084 115.809654,103.927010 114.890526,104.515549 
	C116.379944,105.557953 117.581306,106.398750 118.872871,107.145653 
	C118.963081,107.051750 118.760223,107.215034 118.893066,107.507004 
	C120.273224,108.951263 121.520538,110.103554 122.812225,111.177589 
	C122.856598,111.099327 122.721619,111.218292 122.814011,111.554802 
	C124.902374,115.701073 126.898354,119.510841 128.868149,123.602402 
	C128.935181,124.247757 129.028412,124.611313 129.070724,125.256271 
	C129.149429,126.087364 129.279053,126.637062 129.388367,127.398392 
	C129.368042,127.610031 129.607941,127.961121 129.571381,128.382690 
	C130.745987,133.546326 133.929184,129.617310 136.397568,130.407990 
	C137.429779,130.580673 138.130371,130.635010 139.126450,130.842468 
	C140.500748,131.221436 141.579544,131.447266 142.535812,131.647461 
	C143.373032,128.250061 144.146133,125.112862 145.014160,121.815247 
	C145.109055,121.654831 145.098404,121.282211 145.378372,121.065483 
	C147.993683,117.550407 150.359482,114.272972 152.646332,110.941322 
	C153.358795,109.903366 153.857620,108.718758 154.592041,107.448341 
	C154.729828,107.295403 155.003799,106.988113 155.003799,106.988113 
	C156.265244,107.419052 157.526703,107.849983 158.877563,108.617973 
	C139.800751,122.878098 142.408737,146.311371 156.424500,157.817810 
	C172.219955,170.785278 197.181656,163.853333 203.607773,144.476242 
	C204.260757,142.507202 203.381775,140.030121 203.170319,137.394821 
	C204.013855,135.501953 204.900772,134.003036 205.424927,133.117218 
	C206.300507,134.190887 207.591980,135.774551 208.924438,137.651581 
	C207.627975,141.317291 206.439392,144.758041 204.926880,148.049942 
	C198.946213,161.066559 185.177597,168.749222 171.228592,166.973816 
	C157.114227,165.177353 145.687485,154.164490 143.099228,139.863312 
	C142.130356,134.509827 136.020279,131.524979 131.203156,134.281250 
	C130.156067,134.880386 129.333435,136.565552 129.142395,137.859085 
	C127.362228,149.911774 116.388176,161.468018 104.133568,163.883377 
	C101.729424,164.357224 99.265198,164.526276 96.408661,164.839600 
	C95.997040,164.129242 96.005424,163.415176 96.021179,162.343048 
z"/>
<path fill="#F5BA9B" opacity="1.000000" stroke="none" 
	d="
M193.986023,231.379379 
	C194.508026,228.796371 195.036942,226.655014 195.819077,224.245728 
	C196.450989,235.232559 196.068283,246.575867 197.364304,257.723999 
	C200.205719,282.165131 215.104340,297.164185 237.628647,306.252411 
	C233.671158,309.213501 229.385208,311.752411 225.099274,314.291351 
	C225.376572,310.953705 223.248550,306.810822 228.590958,305.168793 
	C228.432266,304.761475 228.273560,304.354156 228.114868,303.946838 
	C223.339554,304.452789 218.564255,304.958740 213.841232,305.459137 
	C213.841232,305.086639 213.711243,304.673676 213.861572,304.489288 
	C215.183426,302.868164 216.555222,301.287750 217.912216,299.695251 
	C215.985428,298.449432 213.985535,297.300629 212.158188,295.922882 
	C210.988388,295.040924 209.227036,293.850616 209.188568,292.747711 
	C209.008896,287.594421 206.394257,286.477203 201.638214,287.972748 
	C201.638214,285.743317 201.700836,283.858246 201.614365,281.980011 
	C201.563766,280.880646 201.666046,279.414459 201.032013,278.758728 
	C196.021500,273.576752 196.352188,266.713501 195.003830,260.387512 
	C192.987839,250.929443 194.090347,241.352097 193.986023,231.379379 
z"/>
<path fill="#000000" opacity="1.000000" stroke="none" 
	d="
M33.418755,233.160126 
	C34.466145,237.959717 38.926048,241.511887 36.829113,247.949417 
	C28.696068,238.157135 26.407373,227.518677 27.165194,216.426727 
	C28.126783,202.352280 34.655037,191.009781 46.967232,183.366440 
	C43.842251,187.797516 40.482792,192.084030 37.642437,196.690598 
	C32.192448,205.529556 31.393343,215.360474 32.289474,225.436951 
	C32.508278,227.897293 32.905296,230.341782 33.418755,233.160126 
z"/>
<path fill="#000000" opacity="1.000000" stroke="none" 
	d="
M71.135490,140.556122 
	C70.177956,140.604126 68.859711,140.578720 68.655899,140.089264 
	C64.427361,129.934006 70.682671,111.084862 82.119789,107.301933 
	C82.421150,107.202240 82.779732,107.275528 83.387970,107.555862 
	C82.799782,109.559052 81.935242,111.274536 81.070709,112.990013 
	C80.380386,117.314697 80.081718,121.751915 78.881187,125.929993 
	C77.839272,129.556107 75.857307,132.930084 74.125854,136.331543 
	C73.401299,137.754959 72.250664,138.961487 71.135490,140.556122 
z"/>
<path fill="#000000" opacity="1.000000" stroke="none" 
	d="
M284.154938,166.124115 
	C282.874268,172.667831 281.139893,178.554916 276.215454,183.296783 
	C284.889099,166.157883 280.751770,149.850967 273.192047,133.668304 
	C280.221588,139.564194 281.925629,147.666336 283.872650,155.521317 
	C284.672119,158.746735 284.147156,162.300415 284.154938,166.124115 
z"/>
<path fill="#E5B49F" opacity="1.000000" stroke="none" 
	d="
M112.177567,94.935242 
	C111.993027,94.928688 111.808487,94.922142 111.352669,94.859207 
	C111.048660,94.402260 111.015923,94.001701 111.092918,92.940918 
	C110.813896,91.157219 110.425133,90.033752 110.036377,88.910278 
	C110.450844,86.284523 110.865318,83.658775 111.330208,80.713654 
	C113.056595,82.099426 114.342384,83.131538 116.129128,84.664108 
	C117.873039,86.122704 119.028275,87.233780 120.377083,88.007370 
	C123.241547,89.650238 126.301865,90.964569 129.100311,92.705452 
	C131.305771,94.077454 133.239502,95.886208 135.293930,97.500969 
	C135.293930,97.500969 135.386368,97.650864 135.677048,97.910027 
	C138.950562,99.855446 141.933395,101.541710 144.916229,103.227966 
	C145.375824,103.536873 145.835434,103.845779 146.596497,104.403175 
	C146.897964,104.651665 147.008911,104.997978 146.595734,105.006332 
	C142.779510,104.424324 138.640518,104.846626 136.132935,103.024185 
	C131.496338,99.654427 127.721046,95.441200 122.280922,92.703041 
	C119.482628,91.294594 117.147934,88.854774 113.580658,88.544441 
	C113.078690,90.830818 112.628128,92.883026 112.177567,94.935242 
z"/>
<path fill="#7D181F" opacity="1.000000" stroke="none" 
	d="
M224.947845,314.481171 
	C229.385208,311.752411 233.671158,309.213501 237.984650,306.321655 
	C242.147339,306.490784 246.282501,307.012848 250.696014,307.787750 
	C250.397171,308.330688 249.691513,308.999359 249.262161,308.853699 
	C243.508179,306.901489 238.505936,309.199646 233.833282,311.924225 
	C227.291672,315.738586 221.002396,319.994415 214.709244,324.216522 
	C213.780624,324.839569 213.423828,326.314941 212.673203,327.620941 
	C211.118530,327.141602 209.408569,326.614349 207.299026,325.623840 
	C206.855347,324.888092 206.811249,324.615631 206.767136,324.343201 
	C207.768906,323.823517 208.770676,323.303833 210.274353,322.496460 
	C211.881424,321.555206 212.986603,320.901611 214.414566,320.181152 
	C215.864960,319.488861 216.992554,318.863495 218.429520,318.150391 
	C219.518890,317.388702 220.298889,316.714813 221.078888,316.040894 
	C221.078873,316.040894 221.564285,315.957489 222.077759,315.892822 
	C222.870148,315.593140 223.149078,315.358124 223.427994,315.123108 
	C223.884125,314.972412 224.340271,314.821686 224.947845,314.481171 
z"/>
<path fill="#771622" opacity="1.000000" stroke="none" 
	d="
M104.664337,302.819153 
	C102.137489,303.723907 99.013329,303.796051 96.558022,305.114136 
	C89.761459,308.762695 83.243820,312.930878 76.261307,316.925598 
	C80.788712,307.563171 93.872833,300.943146 104.664337,302.819153 
z"/>
<path fill="#E3B3A0" opacity="1.000000" stroke="none" 
	d="
M106.891068,96.694702 
	C107.832283,97.942055 108.543335,98.890862 109.609924,100.180382 
	C109.965454,100.521103 109.967575,101.017303 109.967575,101.017303 
	C108.921249,100.953682 107.874924,100.890060 106.436951,100.760262 
	C99.539864,98.829514 98.344780,91.686455 103.291527,85.209412 
	C104.390968,88.859680 105.525932,92.627914 106.891068,96.694702 
z"/>
<path fill="#421B13" opacity="1.000000" stroke="none" 
	d="
M135.476135,97.191307 
	C133.239502,95.886208 131.305771,94.077454 129.100311,92.705452 
	C126.301865,90.964569 123.241547,89.650238 120.377083,88.007370 
	C119.028275,87.233780 117.873039,86.122704 116.405151,84.874367 
	C117.593971,83.543961 119.007721,82.503746 120.116753,81.687737 
	C124.542503,85.029549 129.628891,88.690887 134.453598,92.669540 
	C135.381790,93.434975 135.283234,95.445511 135.476135,97.191307 
z"/>
<path fill="#000000" opacity="1.000000" stroke="none" 
	d="
M77.406158,95.158424 
	C76.348068,88.524269 76.196243,82.296745 82.679047,77.896141 
	C82.027351,81.278984 80.761696,84.708679 80.093735,88.251091 
	C79.165024,93.176414 80.883560,97.524765 83.735695,101.678589 
	C83.494202,101.991440 83.011490,101.943893 83.011490,101.943893 
	C81.230774,99.752014 79.450066,97.560143 77.406158,95.158424 
z"/>
<path fill="#E7BAAC" opacity="1.000000" stroke="none" 
	d="
M199.597214,113.046265 
	C201.860367,111.577126 204.403503,110.361855 206.946640,109.146584 
	C207.306625,109.657104 207.666611,110.167625 208.026596,110.678146 
	C206.478546,112.707153 204.930511,114.736153 203.224838,116.971748 
	C202.052200,115.685616 200.964691,114.492867 199.597214,113.046265 
z"/>
<path fill="#421B13" opacity="1.000000" stroke="none" 
	d="
M94.050041,132.134384 
	C94.476006,136.685333 94.637489,141.391937 94.711472,146.558426 
	C92.105713,142.236328 91.112587,137.367538 94.050041,132.134384 
z"/>
<path fill="#421B13" opacity="1.000000" stroke="none" 
	d="
M94.334702,149.140198 
	C94.903519,152.736633 95.128448,156.488907 95.278725,160.646622 
	C91.219986,157.502808 92.916542,153.367325 94.334702,149.140198 
z"/>
<path fill="#291B20" opacity="1.000000" stroke="none" 
	d="
M81.421707,112.982445 
	C81.935242,111.274536 82.799782,109.559052 83.744995,107.554062 
	C83.859085,107.060768 83.892502,106.856979 83.968994,106.319962 
	C84.012070,105.986732 84.061714,105.938103 84.305260,105.946243 
	C84.548805,105.954376 85.034149,105.910049 85.034149,105.910049 
	C85.735207,107.145287 86.436256,108.380531 87.369217,110.024376 
	C85.394981,111.065201 83.583839,112.020035 81.421707,112.982445 
z"/>
<path fill="#421B13" opacity="1.000000" stroke="none" 
	d="
M144.884430,102.862488 
	C141.933395,101.541710 138.950562,99.855446 135.763977,97.924057 
	C139.965668,96.762344 142.290115,99.859253 144.884430,102.862488 
z"/>
<path fill="#723D2E" opacity="1.000000" stroke="none" 
	d="
M158.522781,227.974167 
	C156.639755,228.886200 154.341690,229.728394 151.755402,230.846741 
	C150.420670,230.860794 149.374191,230.598709 148.158020,230.060745 
	C151.361496,229.158020 154.734619,228.531174 158.522781,227.974167 
z"/>
<path fill="#771622" opacity="1.000000" stroke="none" 
	d="
M114.646454,303.061707 
	C114.896080,303.821625 114.706001,304.536804 114.533913,305.627747 
	C112.433670,305.258698 110.315445,304.513824 108.099403,303.444275 
	C110.069969,303.085388 112.138359,303.051147 114.646454,303.061707 
z"/>
<path fill="#771622" opacity="1.000000" stroke="none" 
	d="
M72.608246,320.963013 
	C71.548668,322.865723 70.172218,324.876007 68.462402,326.943420 
	C69.516479,325.023895 70.903923,323.047241 72.608246,320.963013 
z"/>
<path fill="#421B13" opacity="1.000000" stroke="none" 
	d="
M147.008911,104.997978 
	C147.008911,104.997978 146.897964,104.651665 146.873199,104.471397 
	C149.414368,105.024651 151.980286,105.758171 154.774994,106.739899 
	C155.003799,106.988113 154.729828,107.295403 154.280518,107.328583 
	C152.775055,107.067848 151.718918,106.773933 150.607040,106.427795 
	C150.551300,106.375580 150.399338,106.391251 150.213562,106.221931 
	C149.699554,105.996902 149.371323,105.941193 149.041611,105.924927 
	C149.040131,105.964363 149.106461,105.921570 148.930313,105.669334 
	C148.168961,105.276253 147.583740,105.135406 146.999298,104.997711 
	C147.000076,105.000877 147.008911,104.997978 147.008911,104.997978 
z"/>
<path fill="#492E31" opacity="1.000000" stroke="none" 
	d="
M91.935081,129.913147 
	C90.838623,130.577972 89.742157,131.242783 88.322006,131.952911 
	C87.998314,131.998245 87.984406,131.984390 87.984406,131.984390 
	C89.098099,130.690536 90.211792,129.396683 91.665787,128.054474 
	C92.006081,128.006134 92.015518,128.015564 92.011459,128.332703 
	C91.983299,129.070938 91.959190,129.492035 91.935081,129.913147 
z"/>
<path fill="#492E31" opacity="1.000000" stroke="none" 
	d="
M86.001831,133.001831 
	C85.154716,134.282425 84.307610,135.563019 83.460495,136.843613 
	C83.033562,136.480545 82.606628,136.117493 82.179695,135.754425 
	C83.235046,134.874023 84.290390,133.993622 85.672867,133.056610 
	C86.000000,133.000000 86.001831,133.001831 86.001831,133.001831 
z"/>
<path fill="#541B27" opacity="1.000000" stroke="none" 
	d="
M62.597309,339.018738 
	C62.423527,340.153290 61.951057,341.372131 61.213345,342.790955 
	C61.398273,341.694977 61.848446,340.398987 62.597309,339.018738 
z"/>
<path fill="#291B20" opacity="1.000000" stroke="none" 
	d="
M82.971558,102.273262 
	C83.011490,101.943893 83.494202,101.991440 83.736298,101.981194 
	C83.978386,101.970947 84.003922,102.009117 84.133865,102.219772 
	C84.454514,102.671127 84.689972,102.854294 84.970200,102.979942 
	C84.742241,103.471733 84.514282,103.963524 84.164803,104.951599 
	C84.043282,105.447884 84.061714,105.938103 84.061714,105.938103 
	C84.061714,105.938103 84.012070,105.986732 83.986504,106.010696 
	C83.617836,104.890648 83.274727,103.746635 82.971558,102.273262 
z"/>
<path fill="#541B27" opacity="1.000000" stroke="none" 
	d="
M64.563271,334.029907 
	C64.492889,334.902679 64.107437,335.881622 63.396416,336.950409 
	C63.463295,336.072205 63.855747,335.104156 64.563271,334.029907 
z"/>
<path fill="#492E31" opacity="1.000000" stroke="none" 
	d="
M94.295418,125.946167 
	C94.691261,126.393578 94.773415,126.870537 94.429527,127.689415 
	C93.340828,128.026062 92.678177,128.020813 92.015518,128.015564 
	C92.015518,128.015564 92.006081,128.006134 92.001610,128.001526 
	C92.658669,127.323189 93.320198,126.649460 94.295418,125.946167 
z"/>
<path fill="#421B13" opacity="1.000000" stroke="none" 
	d="
M92.011459,128.332703 
	C92.678177,128.020813 93.340828,128.026062 94.334633,128.042755 
	C94.672707,128.501129 94.679634,128.948059 94.591812,129.718048 
	C93.857315,130.016235 93.217560,129.991379 92.256447,129.939850 
	C91.959190,129.492035 91.983299,129.070938 92.011459,128.332703 
z"/>
<path fill="#421B13" opacity="1.000000" stroke="none" 
	d="
M110.030762,89.274384 
	C110.425133,90.033752 110.813896,91.157219 111.061691,92.641045 
	C110.622208,91.880424 110.323677,90.759460 110.030762,89.274384 
z"/>
<path fill="#000000" opacity="1.000000" stroke="none" 
	d="
M84.036942,76.012344 
	C84.235435,75.713387 84.752197,75.411797 85.566772,75.085358 
	C85.361458,75.376915 84.858322,75.693306 84.036942,76.012344 
z"/>
<path fill="#000000" opacity="1.000000" stroke="none" 
	d="
M36.993401,309.988251 
	C37.350338,309.819214 37.722229,309.669403 38.094120,309.519562 
	C37.886063,309.687897 37.678005,309.856201 37.255836,310.033752 
	C37.041729,310.042969 37.008350,310.007446 36.993401,309.988251 
z"/>
<path fill="#492E31" opacity="1.000000" stroke="none" 
	d="
M88.003319,132.005310 
	C87.536499,132.331070 87.064674,132.649734 86.297340,132.985107 
	C86.001831,133.001831 86.000000,133.000000 85.999489,132.999237 
	C86.464439,132.673248 86.929901,132.348007 87.689880,132.003586 
	C87.984406,131.984390 87.998314,131.998245 88.003319,132.005310 
z"/>
<path fill="#2A1F23" opacity="1.000000" stroke="none" 
	d="
M84.305260,105.946243 
	C84.061714,105.938103 84.043282,105.447884 84.063667,105.203140 
	C84.363594,105.092621 84.599060,105.281708 84.912300,105.717865 
	C85.034149,105.910049 84.548805,105.954376 84.305260,105.946243 
z"/>
<path fill="#2A1F23" opacity="1.000000" stroke="none" 
	d="
M84.858124,102.783180 
	C84.689972,102.854294 84.454514,102.671127 84.148117,102.237686 
	C84.320747,102.158951 84.558617,102.339439 84.858124,102.783180 
z"/>
<path fill="#7B181F" opacity="1.000000" stroke="none" 
	d="
M132.150986,334.938873 
	C140.812088,338.561005 149.680267,341.008118 159.212708,339.787140 
	C172.671753,338.063232 185.318558,333.625366 197.704697,328.308533 
	C199.530014,327.524994 201.356537,326.744324 203.551086,325.923920 
	C202.241379,327.530640 200.847763,329.959778 198.837219,330.689819 
	C188.206177,334.549927 177.536835,338.413330 166.635574,341.372192 
	C161.564362,342.748688 155.939011,342.094086 150.563644,342.333588 
	C148.760605,342.413940 146.942245,342.553894 145.152145,342.407257 
	C143.412613,342.264771 141.492462,342.175110 140.019333,341.380524 
	C136.950714,339.725433 134.124908,337.620148 131.390289,335.337799 
	C131.771164,334.963409 131.961075,334.951141 132.150986,334.938873 
z"/>
<path fill="#771622" opacity="1.000000" stroke="none" 
	d="
M132.043762,334.614746 
	C131.961075,334.951141 131.771164,334.963409 131.296417,334.992615 
	C127.367920,334.733398 124.979874,333.163696 123.136154,329.681122 
	C121.118240,325.869537 117.933968,322.675446 114.992203,318.868225 
	C114.835907,316.098175 114.625168,312.363098 114.637367,308.332794 
	C118.150604,318.350830 122.979073,327.663574 132.043762,334.614746 
z"/>
<path fill="#9E1D35" opacity="1.000000" stroke="none" 
	d="
M89.966019,375.537231 
	C89.270119,375.489197 88.684921,375.060760 88.030975,374.344666 
	C89.670174,368.069519 91.378113,362.082031 93.086052,356.094574 
	C93.399109,356.161774 93.712166,356.228943 94.025223,356.296143 
	C92.709053,362.583038 91.392891,368.869934 89.966019,375.537231 
z"/>
<path fill="#761B2E" opacity="1.000000" stroke="none" 
	d="
M106.093979,375.921539 
	C105.803123,376.719147 105.296135,377.292084 104.789154,377.864990 
	C104.376343,377.453979 103.963509,377.042969 103.550674,376.631958 
	C104.326385,376.320251 105.102112,376.008545 106.093979,375.921539 
z"/>
<path fill="#7B181F" opacity="1.000000" stroke="none" 
	d="
M206.450424,324.452698 
	C206.811249,324.615631 206.855347,324.888092 206.948853,325.571289 
	C206.223343,325.978424 205.448425,325.974792 204.286102,325.943604 
	C204.643707,325.464752 205.388702,325.013489 206.450424,324.452698 
z"/>
<path fill="#311418" opacity="1.000000" stroke="none" 
	d="
M129.681091,195.610199 
	C125.056580,192.157486 120.794113,188.855209 115.510818,184.762039 
	C131.713684,178.329208 146.065353,180.222519 160.594116,186.056793 
	C151.217621,191.663971 142.706848,199.785873 129.681091,195.610199 
z"/>
<path fill="#F5BA9B" opacity="1.000000" stroke="none" 
	d="
M220.746460,315.857178 
	C220.298889,316.714813 219.518890,317.388702 218.205399,317.884399 
	C215.031799,316.515808 214.312531,318.030853 214.091766,320.248047 
	C212.986603,320.901611 211.881424,321.555206 210.458069,322.279968 
	C210.451599,319.934753 210.315430,315.642761 211.156235,315.441986 
	C214.058258,314.748993 217.301025,315.482910 220.746460,315.857178 
z"/>
<path fill="#F5BA9B" opacity="1.000000" stroke="none" 
	d="
M223.166733,315.171631 
	C223.149078,315.358124 222.870148,315.593140 222.311157,315.814331 
	C222.322556,315.607025 222.614014,315.413574 223.166733,315.171631 
z"/>
<path fill="#D5A288" opacity="1.000000" stroke="none" 
	d="
M177.009705,123.009048 
	C172.150940,127.730995 167.292175,132.452927 162.433411,137.174866 
	C161.947083,136.645615 161.460754,136.116348 160.974426,135.587097 
	C165.488358,130.775787 170.279114,126.266273 176.645447,123.043930 
	C177.000000,122.999947 177.009689,123.009048 177.009705,123.009048 
z"/>
<path fill="#D5A288" opacity="1.000000" stroke="none" 
	d="
M176.995331,122.995071 
	C177.835022,121.716202 178.679382,120.442215 179.523727,119.168228 
	C179.953415,119.532761 180.383087,119.897301 180.812759,120.261833 
	C179.764099,121.144096 178.715439,122.026360 177.338226,122.958832 
	C177.009689,123.009048 177.000000,122.999947 176.995331,122.995071 
z"/>
<path fill="#F7BB9A" opacity="1.000000" stroke="none" 
	d="
M112.260262,95.278923 
	C112.628128,92.883026 113.078690,90.830818 113.580658,88.544441 
	C117.147934,88.854774 119.482628,91.294594 122.280922,92.703041 
	C127.721046,95.441200 131.496338,99.654427 136.132935,103.024185 
	C138.640518,104.846626 142.779510,104.424324 146.595734,105.006332 
	C147.008911,104.997978 147.000076,105.000877 147.200668,105.222931 
	C147.969666,105.603851 148.538055,105.762711 149.106461,105.921570 
	C149.106461,105.921570 149.040131,105.964363 149.209290,106.133377 
	C149.718735,106.332016 150.059036,106.361633 150.399338,106.391251 
	C150.399338,106.391251 150.551300,106.375580 150.409500,106.794785 
	C148.544601,111.903389 146.821503,116.592804 145.098404,121.282211 
	C145.098404,121.282211 145.109055,121.654831 144.659729,121.881516 
	C142.417252,124.968582 140.624100,127.828957 138.830948,130.689331 
	C138.130371,130.635010 137.429779,130.580673 136.155090,130.111542 
	C133.589981,129.118195 131.598953,128.539658 129.607941,127.961121 
	C129.607941,127.961121 129.368042,127.610031 129.654297,127.264709 
	C129.667587,126.271210 129.394608,125.623039 129.121628,124.974876 
	C129.028412,124.611313 128.935181,124.247757 128.901428,123.162064 
	C129.075409,117.479370 128.278519,113.025543 122.721619,111.218292 
	C122.721619,111.218292 122.856598,111.099327 122.870041,110.762756 
	C123.262321,107.104530 121.286072,106.806931 118.760223,107.215034 
	C118.760223,107.215034 118.963081,107.051750 118.922050,106.771805 
	C118.572311,105.301849 118.263603,104.111824 117.954895,102.921806 
	C116.084251,100.488739 114.213600,98.055672 112.260262,95.278923 
z"/>
<path fill="#E5B49F" opacity="1.000000" stroke="none" 
	d="
M145.378372,121.065483 
	C146.821503,116.592804 148.544601,111.903389 150.465240,106.847000 
	C151.718918,106.773933 152.775055,107.067848 154.142731,107.481522 
	C153.857620,108.718758 153.358795,109.903366 152.646332,110.941322 
	C150.359482,114.272972 147.993683,117.550407 145.378372,121.065483 
z"/>
<path fill="#E5B49F" opacity="1.000000" stroke="none" 
	d="
M139.126450,130.842468 
	C140.624100,127.828957 142.417252,124.968582 144.564819,122.041931 
	C144.146133,125.112862 143.373032,128.250061 142.535812,131.647461 
	C141.579544,131.447266 140.500748,131.221436 139.126450,130.842468 
z"/>
<path fill="#E5B49F" opacity="1.000000" stroke="none" 
	d="
M122.814011,111.554802 
	C128.278519,113.025543 129.075409,117.479370 128.927612,122.880280 
	C126.898354,119.510841 124.902374,115.701073 122.814011,111.554802 
z"/>
<path fill="#E5B49F" opacity="1.000000" stroke="none" 
	d="
M129.571381,128.382690 
	C131.598953,128.539658 133.589981,129.118195 135.823456,129.993179 
	C133.929184,129.617310 130.745987,133.546326 129.571381,128.382690 
z"/>
<path fill="#E5B49F" opacity="1.000000" stroke="none" 
	d="
M118.893066,107.507004 
	C121.286072,106.806931 123.262321,107.104530 122.825668,110.841019 
	C121.520538,110.103554 120.273224,108.951263 118.893066,107.507004 
z"/>
<path fill="#E5B49F" opacity="1.000000" stroke="none" 
	d="
M117.614601,102.955482 
	C118.263603,104.111824 118.572311,105.301849 118.831841,106.865707 
	C117.581306,106.398750 116.379944,105.557953 114.890526,104.515549 
	C115.809654,103.927010 116.541985,103.458084 117.614601,102.955482 
z"/>
<path fill="#2C121A" opacity="1.000000" stroke="none" 
	d="
M109.980637,101.259254 
	C109.967575,101.017303 109.965454,100.521103 109.900803,100.281403 
	C110.662033,100.300278 111.487923,100.558846 112.313812,100.817413 
	C111.770981,101.208115 111.228149,101.598808 110.343788,101.996170 
	C110.002258,102.002838 109.978188,101.985565 109.978188,101.985565 
	C109.978188,101.985565 109.993690,101.501205 109.980637,101.259254 
z"/>
<path fill="#2C121A" opacity="1.000000" stroke="none" 
	d="
M110.013123,102.013298 
	C109.821556,102.863037 109.619118,103.702316 109.416679,104.541595 
	C109.124847,104.442741 108.833008,104.343887 108.541176,104.245026 
	C108.847603,103.591553 109.154030,102.938080 109.719322,102.135086 
	C109.978188,101.985565 110.002258,102.002838 110.013123,102.013298 
z"/>
<path fill="#E5B49F" opacity="1.000000" stroke="none" 
	d="
M129.070724,125.256271 
	C129.394608,125.623039 129.667587,126.271210 129.674622,127.053070 
	C129.279053,126.637062 129.149429,126.087364 129.070724,125.256271 
z"/>
<path fill="#F7BB9A" opacity="1.000000" stroke="none" 
	d="
M214.414566,320.181152 
	C214.312531,318.030853 215.031799,316.515808 217.896027,317.972168 
	C216.992554,318.863495 215.864960,319.488861 214.414566,320.181152 
z"/>
<path fill="#E5B49F" opacity="1.000000" stroke="none" 
	d="
M148.930313,105.669327 
	C148.538055,105.762711 147.969666,105.603851 147.199890,105.219772 
	C147.583740,105.135406 148.168961,105.276253 148.930313,105.669327 
z"/>
<path fill="#E5B49F" opacity="1.000000" stroke="none" 
	d="
M150.213562,106.221931 
	C150.059036,106.361633 149.718735,106.332016 149.210754,106.093933 
	C149.371323,105.941193 149.699554,105.996902 150.213562,106.221931 
z"/>
</svg>